<?xml version="1.0" encoding="UTF-8"?>
<svg xmlns="http://www.w3.org/2000/svg" xmlns:xlink="http://www.w3.org/1999/xlink" width="588pt" height="151pt" viewBox="0 0 588 151" version="1.1">
<g id="surface1">
<path style=" stroke:none;fill-rule:nonzero;fill:rgb(13.699341%,12.199402%,12.5%);fill-opacity:1;" d="M 19.027344 131.328125 C 19.027344 131.71875 19.011719 132.085938 18.984375 132.433594 C 18.957031 132.78125 18.929688 133.066406 18.902344 133.289063 L 4.417969 133.289063 C 4.527344 134.347656 4.75 135.25 5.082031 136.003906 C 5.417969 136.757813 5.832031 137.375 6.335938 137.863281 C 6.835938 138.347656 7.394531 138.710938 8.003906 138.949219 C 8.617188 139.183594 9.257813 139.304688 9.925781 139.304688 C 10.84375 139.304688 11.6875 139.148438 12.453125 138.839844 C 13.21875 138.535156 13.960938 138.105469 14.683594 137.546875 L 17.230469 140.304688 C 16.257813 141.222656 15.171875 141.933594 13.976563 142.433594 C 12.777344 142.933594 11.34375 143.183594 9.675781 143.183594 C 8.394531 143.183594 7.175781 142.933594 6.023438 142.433594 C 4.867188 141.933594 3.855469 141.195313 2.996094 140.222656 C 2.132813 139.246094 1.453125 138.050781 0.953125 136.628906 C 0.449219 135.210938 0.199219 133.597656 0.199219 131.789063 C 0.199219 129.921875 0.433594 128.28125 0.910156 126.859375 C 1.382813 125.441406 2.035156 124.253906 2.871094 123.289063 C 3.707031 122.328125 4.714844 121.601563 5.898438 121.101563 C 7.078125 120.601563 8.382813 120.347656 9.800781 120.347656 C 11.359375 120.347656 12.714844 120.640625 13.871094 121.226563 C 15.027344 121.808594 15.988281 122.601563 16.753906 123.605469 C 17.519531 124.605469 18.089844 125.773438 18.464844 127.113281 C 18.839844 128.449219 19.027344 129.851563 19.027344 131.328125 Z M 14.683594 129.738281 C 14.628906 128.988281 14.496094 128.28125 14.289063 127.613281 C 14.082031 126.945313 13.765625 126.359375 13.347656 125.859375 C 12.933594 125.359375 12.410156 124.960938 11.785156 124.667969 C 11.15625 124.378906 10.398438 124.230469 9.511719 124.230469 C 8.0625 124.230469 6.914063 124.710938 6.0625 125.671875 C 5.214844 126.632813 4.695313 127.988281 4.5 129.738281 Z M 39.277344 136.710938 C 39.277344 137.9375 39.046875 138.960938 38.585938 139.78125 C 38.128906 140.601563 37.523438 141.265625 36.769531 141.765625 C 36.019531 142.265625 35.148438 142.625 34.164063 142.851563 C 33.171875 143.074219 32.136719 143.183594 31.050781 143.183594 C 29.546875 143.183594 28.050781 142.921875 26.566406 142.390625 C 25.074219 141.863281 23.773438 141.195313 22.660156 140.386719 L 24.621094 137.128906 C 25.652344 137.855469 26.71875 138.398438 27.816406 138.757813 C 28.914063 139.121094 29.980469 139.304688 31.011719 139.304688 C 33.679688 139.304688 35.015625 138.496094 35.015625 136.878906 C 35.015625 136.046875 34.566406 135.375 33.660156 134.878906 C 32.753906 134.375 31.511719 133.820313 29.925781 133.207031 C 28.753906 132.761719 27.761719 132.308594 26.9375 131.851563 C 26.117188 131.390625 25.449219 130.894531 24.933594 130.367188 C 24.421875 129.839844 24.050781 129.246094 23.832031 128.59375 C 23.605469 127.941406 23.496094 127.179688 23.496094 126.320313 C 23.496094 125.34375 23.675781 124.480469 24.039063 123.726563 C 24.398438 122.980469 24.914063 122.351563 25.582031 121.851563 C 26.25 121.351563 27.042969 120.972656 27.960938 120.722656 C 28.882813 120.472656 29.882813 120.347656 30.96875 120.347656 C 32.359375 120.347656 33.703125 120.570313 34.996094 121.015625 C 36.289063 121.460938 37.425781 122.042969 38.398438 122.769531 L 36.519531 126.066406 C 35.628906 125.425781 34.726563 124.953125 33.804688 124.648438 C 32.890625 124.339844 31.898438 124.1875 30.84375 124.1875 C 29.785156 124.1875 29.019531 124.378906 28.546875 124.753906 C 28.074219 125.128906 27.839844 125.605469 27.839844 126.191406 C 27.839844 126.472656 27.890625 126.726563 28.003906 126.964844 C 28.117188 127.203125 28.324219 127.445313 28.628906 127.695313 C 28.9375 127.949219 29.347656 128.203125 29.859375 128.46875 C 30.378906 128.734375 31.050781 129.03125 31.886719 129.363281 C 33.109375 129.839844 34.183594 130.289063 35.101563 130.722656 C 36.019531 131.152344 36.792969 131.640625 37.417969 132.183594 C 38.042969 132.726563 38.511719 133.359375 38.816406 134.085938 C 39.121094 134.808594 39.277344 135.683594 39.277344 136.710938 Z M 63.199219 132.121094 C 63.199219 134.015625 62.960938 135.648438 62.488281 137.027344 C 62.015625 138.402344 61.378906 139.554688 60.589844 140.472656 C 59.796875 141.390625 58.878906 142.070313 57.832031 142.515625 C 56.789063 142.960938 55.699219 143.183594 54.554688 143.183594 C 53.441406 143.183594 52.398438 142.933594 51.425781 142.433594 C 50.453125 141.933594 49.65625 141.347656 49.042969 140.679688 L 49.042969 148.570313 L 44.785156 150.78125 L 44.785156 120.808594 L 49.042969 120.808594 L 49.042969 122.894531 C 49.851563 122.171875 50.714844 121.566406 51.632813 121.078125 C 52.554688 120.59375 53.59375 120.347656 54.765625 120.347656 C 55.933594 120.347656 57.03125 120.570313 58.0625 121.015625 C 59.09375 121.460938 59.992188 122.15625 60.753906 123.101563 C 61.523438 124.050781 62.121094 125.265625 62.550781 126.757813 C 62.980469 128.246094 63.199219 130.035156 63.199219 132.121094 Z M 58.898438 132.246094 C 58.898438 129.460938 58.472656 127.445313 57.625 126.191406 C 56.777344 124.941406 55.558594 124.3125 53.972656 124.3125 C 52.941406 124.3125 51.996094 124.601563 51.132813 125.167969 C 50.273438 125.738281 49.558594 126.390625 49.003906 127.113281 L 49.003906 136.339844 C 49.253906 136.671875 49.558594 137.003906 49.921875 137.339844 C 50.28125 137.675781 50.6875 137.980469 51.132813 138.257813 C 51.578125 138.535156 52.050781 138.765625 52.554688 138.949219 C 53.054688 139.128906 53.582031 139.21875 54.140625 139.21875 C 55.699219 139.21875 56.878906 138.640625 57.6875 137.488281 C 58.496094 136.332031 58.898438 134.585938 58.898438 132.246094 Z M 86.371094 131.328125 C 86.371094 131.71875 86.355469 132.085938 86.328125 132.433594 C 86.300781 132.78125 86.273438 133.066406 86.242188 133.289063 L 71.757813 133.289063 C 71.867188 134.347656 72.089844 135.25 72.425781 136.003906 C 72.757813 136.757813 73.175781 137.375 73.675781 137.863281 C 74.175781 138.347656 74.734375 138.710938 75.347656 138.949219 C 75.957031 139.183594 76.597656 139.304688 77.269531 139.304688 C 78.1875 139.304688 79.027344 139.148438 79.792969 138.839844 C 80.558594 138.535156 81.300781 138.105469 82.027344 137.546875 L 84.574219 140.304688 C 83.597656 141.222656 82.515625 141.933594 81.316406 142.433594 C 80.121094 142.933594 78.6875 143.183594 77.015625 143.183594 C 75.738281 143.183594 74.519531 142.933594 73.363281 142.433594 C 72.210938 141.933594 71.199219 141.195313 70.335938 140.222656 C 69.472656 139.246094 68.792969 138.050781 68.292969 136.628906 C 67.789063 135.210938 67.539063 133.597656 67.539063 131.789063 C 67.539063 129.921875 67.777344 128.28125 68.25 126.859375 C 68.722656 125.441406 69.378906 124.253906 70.210938 123.289063 C 71.046875 122.328125 72.054688 121.601563 73.238281 121.101563 C 74.421875 120.601563 75.722656 120.347656 77.140625 120.347656 C 78.703125 120.347656 80.058594 120.640625 81.210938 121.226563 C 82.367188 121.808594 83.328125 122.601563 84.09375 123.605469 C 84.859375 124.605469 85.429688 125.773438 85.804688 127.113281 C 86.179688 128.449219 86.371094 129.851563 86.371094 131.328125 Z M 82.027344 129.738281 C 81.972656 128.988281 81.839844 128.28125 81.628906 127.613281 C 81.421875 126.945313 81.109375 126.359375 80.691406 125.859375 C 80.273438 125.359375 79.75 124.960938 79.125 124.667969 C 78.5 124.378906 77.738281 124.230469 76.851563 124.230469 C 75.402344 124.230469 74.253906 124.710938 73.40625 125.671875 C 72.558594 126.632813 72.035156 127.988281 71.839844 129.738281 Z M 105.488281 127.113281 C 104.597656 126.191406 103.730469 125.515625 102.878906 125.085938 C 102.03125 124.65625 101.121094 124.441406 100.144531 124.441406 C 98.558594 124.441406 97.308594 125.085938 96.386719 126.382813 C 95.46875 127.671875 95.011719 129.449219 95.011719 131.703125 C 95.011719 132.789063 95.121094 133.785156 95.34375 134.6875 C 95.566406 135.59375 95.902344 136.371094 96.347656 137.027344 C 96.792969 137.679688 97.34375 138.191406 97.996094 138.550781 C 98.652344 138.910156 99.40625 139.09375 100.269531 139.09375 C 101.300781 139.09375 102.171875 138.863281 102.878906 138.402344 C 103.589844 137.945313 104.378906 137.269531 105.238281 136.378906 L 107.996094 139.09375 C 107.578125 139.652344 107.117188 140.171875 106.617188 140.65625 C 106.117188 141.144531 105.554688 141.578125 104.925781 141.953125 C 104.300781 142.328125 103.597656 142.625 102.816406 142.851563 C 102.039063 143.074219 101.148438 143.183594 100.144531 143.183594 C 98.8125 143.183594 97.566406 142.914063 96.410156 142.371094 C 95.253906 141.828125 94.253906 141.0625 93.402344 140.074219 C 92.554688 139.085938 91.886719 137.898438 91.402344 136.503906 C 90.914063 135.113281 90.667969 133.554688 90.667969 131.828125 C 90.667969 130.019531 90.917969 128.40625 91.421875 126.984375 C 91.921875 125.566406 92.601563 124.363281 93.464844 123.375 C 94.328125 122.386719 95.34375 121.636719 96.515625 121.121094 C 97.683594 120.605469 98.9375 120.347656 100.269531 120.347656 C 101.886719 120.347656 103.324219 120.660156 104.59375 121.289063 C 105.859375 121.914063 107.007813 122.839844 108.035156 124.0625 Z M 118.640625 115.214844 C 118.640625 115.964844 118.367188 116.609375 117.828125 117.15625 C 117.285156 117.695313 116.636719 117.96875 115.886719 117.96875 C 115.109375 117.96875 114.445313 117.695313 113.902344 117.15625 C 113.359375 116.609375 113.089844 115.964844 113.089844 115.214844 C 113.089844 114.433594 113.359375 113.773438 113.902344 113.226563 C 114.445313 112.6875 115.109375 112.414063 115.886719 112.414063 C 116.636719 112.414063 117.285156 112.6875 117.828125 113.226563 C 118.367188 113.773438 118.640625 114.433594 118.640625 115.214844 Z M 113.714844 142.726563 L 113.714844 120.808594 L 118.015625 120.808594 L 118.015625 142.726563 Z M 137.136719 142.726563 L 137.136719 140.554688 C 136.386719 141.304688 135.496094 141.933594 134.464844 142.433594 C 133.4375 142.933594 132.324219 143.183594 131.125 143.183594 C 130.234375 143.183594 129.339844 143.050781 128.433594 142.789063 C 127.527344 142.523438 126.714844 142.101563 125.992188 141.515625 C 125.265625 140.929688 124.675781 140.164063 124.214844 139.21875 C 123.753906 138.273438 123.527344 137.128906 123.527344 135.796875 C 123.527344 134.570313 123.75 133.511719 124.195313 132.621094 C 124.640625 131.730469 125.253906 130.992188 126.03125 130.410156 C 126.808594 129.828125 127.730469 129.394531 128.785156 129.113281 C 129.847656 128.835938 131.003906 128.699219 132.253906 128.699219 C 134.257813 128.699219 135.882813 128.976563 137.136719 129.53125 L 137.136719 127.902344 C 137.136719 126.707031 136.78125 125.789063 136.070313 125.148438 C 135.363281 124.511719 134.339844 124.1875 133.003906 124.1875 C 131.863281 124.1875 130.839844 124.300781 129.9375 124.523438 C 129.03125 124.746094 128.148438 125.09375 127.285156 125.566406 L 125.613281 122.308594 C 126.671875 121.667969 127.800781 121.183594 128.996094 120.847656 C 130.191406 120.515625 131.570313 120.347656 133.128906 120.347656 C 135.578125 120.347656 137.5625 120.953125 139.078125 122.164063 C 140.597656 123.375 141.355469 125.21875 141.355469 127.695313 L 141.355469 142.726563 Z M 137.136719 133.371094 C 136.550781 133.066406 135.863281 132.832031 135.070313 132.664063 C 134.277344 132.496094 133.296875 132.414063 132.128906 132.414063 C 130.734375 132.414063 129.636719 132.707031 128.828125 133.289063 C 128.023438 133.875 127.621094 134.667969 127.621094 135.667969 C 127.621094 136.757813 127.96875 137.632813 128.660156 138.300781 C 129.359375 138.96875 130.414063 139.304688 131.835938 139.304688 C 133.003906 139.304688 134.054688 139.011719 134.988281 138.425781 C 135.921875 137.839844 136.636719 137.199219 137.136719 136.503906 Z M 147.738281 142.726563 L 147.738281 114.542969 L 152.042969 112.289063 L 152.042969 142.726563 Z M 163.730469 115.214844 C 163.730469 115.964844 163.460938 116.609375 162.917969 117.15625 C 162.375 117.695313 161.726563 117.96875 160.976563 117.96875 C 160.195313 117.96875 159.535156 117.695313 158.992188 117.15625 C 158.449219 116.609375 158.179688 115.964844 158.179688 115.214844 C 158.179688 114.433594 158.449219 113.773438 158.992188 113.226563 C 159.535156 112.6875 160.195313 112.414063 160.976563 112.414063 C 161.726563 112.414063 162.375 112.6875 162.917969 113.226563 C 163.460938 113.773438 163.730469 114.433594 163.730469 115.214844 Z M 158.804688 142.726563 L 158.804688 120.808594 L 163.105469 120.808594 L 163.105469 142.726563 Z M 184.984375 136.710938 C 184.984375 137.9375 184.753906 138.960938 184.296875 139.78125 C 183.835938 140.601563 183.230469 141.265625 182.476563 141.765625 C 181.726563 142.265625 180.855469 142.625 179.867188 142.851563 C 178.878906 143.074219 177.84375 143.183594 176.757813 143.183594 C 175.257813 143.183594 173.757813 142.921875 172.269531 142.390625 C 170.78125 141.863281 169.480469 141.195313 168.367188 140.386719 L 170.328125 137.128906 C 171.359375 137.855469 172.421875 138.398438 173.523438 138.757813 C 174.621094 139.121094 175.6875 139.304688 176.714844 139.304688 C 179.386719 139.304688 180.726563 138.496094 180.726563 136.878906 C 180.726563 136.046875 180.269531 135.375 179.367188 134.878906 C 178.460938 134.375 177.21875 133.820313 175.632813 133.207031 C 174.460938 132.761719 173.464844 132.308594 172.644531 131.851563 C 171.824219 131.390625 171.15625 130.894531 170.640625 130.367188 C 170.128906 129.839844 169.757813 129.246094 169.535156 128.59375 C 169.3125 127.941406 169.199219 127.179688 169.199219 126.320313 C 169.199219 125.34375 169.382813 124.480469 169.746094 123.726563 C 170.105469 122.980469 170.621094 122.351563 171.289063 121.851563 C 171.957031 121.351563 172.75 120.972656 173.667969 120.722656 C 174.589844 120.472656 175.589844 120.347656 176.675781 120.347656 C 178.066406 120.347656 179.410156 120.570313 180.703125 121.015625 C 181.996094 121.460938 183.132813 122.042969 184.105469 122.769531 L 182.226563 126.066406 C 181.335938 125.425781 180.433594 124.953125 179.515625 124.648438 C 178.59375 124.339844 177.605469 124.1875 176.550781 124.1875 C 175.492188 124.1875 174.726563 124.378906 174.253906 124.753906 C 173.78125 125.128906 173.546875 125.605469 173.546875 126.191406 C 173.546875 126.472656 173.597656 126.726563 173.710938 126.964844 C 173.824219 127.203125 174.03125 127.445313 174.335938 127.695313 C 174.640625 127.949219 175.050781 128.203125 175.566406 128.46875 C 176.082031 128.734375 176.757813 129.03125 177.59375 129.363281 C 178.816406 129.839844 179.890625 130.289063 180.808594 130.722656 C 181.726563 131.152344 182.496094 131.640625 183.125 132.183594 C 183.75 132.726563 184.21875 133.359375 184.523438 134.085938 C 184.832031 134.808594 184.984375 135.683594 184.984375 136.710938 Z M 200.554688 142.183594 C 200.027344 142.488281 199.40625 142.730469 198.695313 142.914063 C 197.988281 143.09375 197.199219 143.183594 196.339844 143.183594 C 194.808594 143.183594 193.605469 142.714844 192.726563 141.765625 C 191.851563 140.820313 191.410156 139.355469 191.410156 137.382813 L 191.410156 124.730469 L 188.28125 124.730469 L 188.28125 120.808594 L 191.410156 120.808594 L 191.410156 114.542969 L 195.628906 112.289063 L 195.628906 120.808594 L 201.054688 120.808594 L 201.054688 124.730469 L 195.628906 124.730469 L 195.628906 136.628906 C 195.628906 137.660156 195.800781 138.355469 196.148438 138.71875 C 196.496094 139.078125 197.074219 139.261719 197.882813 139.261719 C 198.4375 139.261719 199.011719 139.167969 199.59375 138.988281 C 200.179688 138.808594 200.664063 138.605469 201.054688 138.382813 Z M 218.839844 142.726563 L 218.839844 140.554688 C 218.089844 141.304688 217.199219 141.933594 216.167969 142.433594 C 215.140625 142.933594 214.027344 143.183594 212.828125 143.183594 C 211.9375 143.183594 211.039063 143.050781 210.136719 142.789063 C 209.230469 142.523438 208.417969 142.101563 207.695313 141.515625 C 206.96875 140.929688 206.378906 140.164063 205.917969 139.21875 C 205.460938 138.273438 205.230469 137.128906 205.230469 135.796875 C 205.230469 134.570313 205.453125 133.511719 205.898438 132.621094 C 206.34375 131.730469 206.957031 130.992188 207.734375 130.410156 C 208.515625 129.828125 209.433594 129.394531 210.488281 129.113281 C 211.550781 128.835938 212.703125 128.699219 213.957031 128.699219 C 215.960938 128.699219 217.589844 128.976563 218.839844 129.53125 L 218.839844 127.902344 C 218.839844 126.707031 218.484375 125.789063 217.777344 125.148438 C 217.066406 124.511719 216.046875 124.1875 214.707031 124.1875 C 213.566406 124.1875 212.546875 124.300781 211.640625 124.523438 C 210.734375 124.746094 209.851563 125.09375 208.988281 125.566406 L 207.316406 122.308594 C 208.375 121.667969 209.503906 121.183594 210.699219 120.847656 C 211.898438 120.515625 213.273438 120.347656 214.832031 120.347656 C 217.28125 120.347656 219.265625 120.953125 220.78125 122.164063 C 222.300781 123.375 223.058594 125.21875 223.058594 127.695313 L 223.058594 142.726563 Z M 218.839844 133.371094 C 218.257813 133.066406 217.566406 132.832031 216.773438 132.664063 C 215.980469 132.496094 215 132.414063 213.828125 132.414063 C 212.441406 132.414063 211.339844 132.707031 210.53125 133.289063 C 209.726563 133.875 209.324219 134.667969 209.324219 135.667969 C 209.324219 136.757813 209.671875 137.632813 210.367188 138.300781 C 211.0625 138.96875 212.117188 139.304688 213.539063 139.304688 C 214.707031 139.304688 215.761719 139.011719 216.691406 138.425781 C 217.621094 137.839844 218.339844 137.199219 218.839844 136.503906 Z M 258.296875 131.328125 C 258.296875 131.71875 258.277344 132.085938 258.253906 132.433594 C 258.226563 132.78125 258.195313 133.066406 258.167969 133.289063 L 243.683594 133.289063 C 243.792969 134.347656 244.015625 135.25 244.351563 136.003906 C 244.683594 136.757813 245.101563 137.375 245.601563 137.863281 C 246.105469 138.347656 246.660156 138.710938 247.269531 138.949219 C 247.886719 139.183594 248.523438 139.304688 249.195313 139.304688 C 250.113281 139.304688 250.953125 139.148438 251.71875 138.839844 C 252.484375 138.535156 253.230469 138.105469 253.953125 137.546875 L 256.496094 140.304688 C 255.523438 141.222656 254.4375 141.933594 253.242188 142.433594 C 252.046875 142.933594 250.609375 143.183594 248.941406 143.183594 C 247.664063 143.183594 246.445313 142.933594 245.289063 142.433594 C 244.136719 141.933594 243.125 141.195313 242.261719 140.222656 C 241.398438 139.246094 240.71875 138.050781 240.21875 136.628906 C 239.714844 135.210938 239.464844 133.597656 239.464844 131.789063 C 239.464844 129.921875 239.699219 128.28125 240.175781 126.859375 C 240.648438 125.441406 241.300781 124.253906 242.136719 123.289063 C 242.972656 122.328125 243.980469 121.601563 245.164063 121.101563 C 246.347656 120.601563 247.648438 120.347656 249.066406 120.347656 C 250.628906 120.347656 251.984375 120.640625 253.136719 121.226563 C 254.292969 121.808594 255.253906 122.601563 256.019531 123.605469 C 256.785156 124.605469 257.355469 125.773438 257.730469 127.113281 C 258.109375 128.449219 258.296875 129.851563 258.296875 131.328125 Z M 253.953125 129.738281 C 253.898438 128.988281 253.765625 128.28125 253.554688 127.613281 C 253.347656 126.945313 253.035156 126.359375 252.617188 125.859375 C 252.199219 125.359375 251.675781 124.960938 251.050781 124.667969 C 250.425781 124.378906 249.667969 124.230469 248.773438 124.230469 C 247.328125 124.230469 246.179688 124.710938 245.332031 125.671875 C 244.480469 126.632813 243.960938 127.988281 243.765625 129.738281 Z M 289.105469 142.726563 L 289.105469 130.324219 C 289.105469 128.097656 288.757813 126.539063 288.0625 125.648438 C 287.367188 124.757813 286.308594 124.3125 284.886719 124.3125 C 283.441406 124.3125 282.378906 124.800781 281.695313 125.773438 C 281.015625 126.75 280.671875 128.128906 280.671875 129.910156 L 280.671875 142.726563 L 276.371094 142.726563 L 276.371094 130.324219 C 276.371094 128.097656 276.023438 126.539063 275.328125 125.648438 C 274.632813 124.757813 273.574219 124.3125 272.15625 124.3125 C 270.707031 124.3125 269.644531 124.800781 268.960938 125.773438 C 268.277344 126.75 267.941406 128.128906 267.941406 129.910156 L 267.941406 142.726563 L 263.636719 142.726563 L 263.636719 120.808594 L 267.941406 120.808594 L 267.941406 122.894531 C 268.496094 122.085938 269.21875 121.460938 270.109375 121.015625 C 271 120.570313 272.015625 120.347656 273.15625 120.347656 C 274.660156 120.347656 275.890625 120.621094 276.851563 121.160156 C 277.8125 121.703125 278.585938 122.503906 279.167969 123.5625 C 279.558594 123.0625 279.96875 122.617188 280.402344 122.226563 C 280.832031 121.835938 281.3125 121.503906 281.839844 121.226563 C 282.371094 120.945313 282.960938 120.730469 283.613281 120.578125 C 284.269531 120.421875 285.027344 120.347656 285.890625 120.347656 C 288.453125 120.347656 290.34375 121.167969 291.566406 122.808594 C 292.792969 124.453125 293.40625 126.902344 293.40625 130.160156 L 293.40625 142.726563 Z M 324.636719 127.113281 C 323.742188 126.191406 322.871094 125.515625 322.023438 125.085938 C 321.175781 124.65625 320.265625 124.441406 319.289063 124.441406 C 317.703125 124.441406 316.453125 125.085938 315.535156 126.382813 C 314.613281 127.671875 314.15625 129.449219 314.15625 131.703125 C 314.15625 132.789063 314.265625 133.785156 314.488281 134.6875 C 314.710938 135.59375 315.046875 136.371094 315.492188 137.027344 C 315.9375 137.679688 316.484375 138.191406 317.140625 138.550781 C 317.796875 138.910156 318.550781 139.09375 319.417969 139.09375 C 320.445313 139.09375 321.316406 138.863281 322.023438 138.402344 C 322.734375 137.945313 323.519531 137.269531 324.382813 136.378906 L 327.140625 139.09375 C 326.722656 139.652344 326.265625 140.171875 325.761719 140.65625 C 325.261719 141.144531 324.695313 141.578125 324.070313 141.953125 C 323.445313 142.328125 322.738281 142.625 321.960938 142.851563 C 321.183594 143.074219 320.292969 143.183594 319.289063 143.183594 C 317.953125 143.183594 316.710938 142.914063 315.554688 142.371094 C 314.398438 141.828125 313.398438 141.0625 312.546875 140.074219 C 311.699219 139.085938 311.03125 137.898438 310.546875 136.503906 C 310.058594 135.113281 309.8125 133.554688 309.8125 131.828125 C 309.8125 130.019531 310.0625 128.40625 310.566406 126.984375 C 311.066406 125.566406 311.75 124.363281 312.609375 123.375 C 313.472656 122.386719 314.488281 121.636719 315.660156 121.121094 C 316.828125 120.605469 318.078125 120.347656 319.417969 120.347656 C 321.03125 120.347656 322.46875 120.660156 323.738281 121.289063 C 325.003906 121.914063 326.148438 122.839844 327.179688 124.0625 Z M 350.4375 131.660156 C 350.4375 133.46875 350.1875 135.09375 349.6875 136.523438 C 349.183594 137.960938 348.484375 139.167969 347.597656 140.15625 C 346.707031 141.144531 345.664063 141.898438 344.46875 142.410156 C 343.269531 142.929688 341.960938 143.183594 340.539063 143.183594 C 339.152344 143.183594 337.871094 142.914063 336.699219 142.371094 C 335.53125 141.828125 334.515625 141.054688 333.652344 140.054688 C 332.789063 139.050781 332.117188 137.855469 331.628906 136.460938 C 331.140625 135.070313 330.898438 133.511719 330.898438 131.789063 C 330.898438 130.007813 331.148438 128.40625 331.648438 126.984375 C 332.148438 125.566406 332.839844 124.363281 333.714844 123.375 C 334.59375 122.386719 335.621094 121.636719 336.804688 121.121094 C 337.988281 120.605469 339.277344 120.347656 340.667969 120.347656 C 342.058594 120.347656 343.355469 120.621094 344.550781 121.160156 C 345.746094 121.703125 346.785156 122.460938 347.660156 123.4375 C 348.539063 124.410156 349.21875 125.601563 349.707031 127.007813 C 350.195313 128.414063 350.4375 129.964844 350.4375 131.660156 Z M 346.09375 131.789063 C 346.09375 129.53125 345.601563 127.742188 344.613281 126.421875 C 343.625 125.101563 342.253906 124.441406 340.5 124.441406 C 338.859375 124.441406 337.570313 125.101563 336.640625 126.421875 C 335.707031 127.742188 335.238281 129.492188 335.238281 131.660156 C 335.238281 134.085938 335.742188 135.925781 336.742188 137.195313 C 337.746094 138.460938 339.066406 139.09375 340.710938 139.09375 C 341.515625 139.09375 342.253906 138.898438 342.921875 138.507813 C 343.589844 138.121094 344.160156 137.597656 344.632813 136.941406 C 345.105469 136.289063 345.46875 135.519531 345.71875 134.625 C 345.96875 133.734375 346.09375 132.789063 346.09375 131.789063 Z M 381.207031 142.726563 L 381.207031 130.324219 C 381.207031 128.097656 380.859375 126.539063 380.164063 125.648438 C 379.46875 124.757813 378.410156 124.3125 376.988281 124.3125 C 375.542969 124.3125 374.476563 124.800781 373.796875 125.773438 C 373.113281 126.75 372.773438 128.128906 372.773438 129.910156 L 372.773438 142.726563 L 368.472656 142.726563 L 368.472656 130.324219 C 368.472656 128.097656 368.125 126.539063 367.429688 125.648438 C 366.734375 124.757813 365.675781 124.3125 364.257813 124.3125 C 362.808594 124.3125 361.742188 124.800781 361.058594 125.773438 C 360.378906 126.75 360.039063 128.128906 360.039063 129.910156 L 360.039063 142.726563 L 355.738281 142.726563 L 355.738281 120.808594 L 360.039063 120.808594 L 360.039063 122.894531 C 360.59375 122.085938 361.316406 121.460938 362.210938 121.015625 C 363.101563 120.570313 364.117188 120.347656 365.257813 120.347656 C 366.761719 120.347656 367.992188 120.621094 368.953125 121.160156 C 369.910156 121.703125 370.683594 122.503906 371.269531 123.5625 C 371.65625 123.0625 372.070313 122.617188 372.5 122.226563 C 372.933594 121.835938 373.414063 121.503906 373.941406 121.226563 C 374.472656 120.945313 375.0625 120.730469 375.714844 120.578125 C 376.371094 120.421875 377.128906 120.347656 377.992188 120.347656 C 380.550781 120.347656 382.445313 121.167969 383.667969 122.808594 C 384.890625 124.453125 385.507813 126.902344 385.507813 130.160156 L 385.507813 142.726563 Z M 410.097656 132.121094 C 410.097656 134.015625 409.859375 135.648438 409.386719 137.027344 C 408.914063 138.402344 408.28125 139.554688 407.484375 140.472656 C 406.691406 141.390625 405.773438 142.070313 404.730469 142.515625 C 403.6875 142.960938 402.59375 143.183594 401.453125 143.183594 C 400.339844 143.183594 399.296875 142.933594 398.324219 142.433594 C 397.347656 141.933594 396.554688 141.347656 395.941406 140.679688 L 395.941406 148.570313 L 391.683594 150.78125 L 391.683594 120.808594 L 395.941406 120.808594 L 395.941406 122.894531 C 396.75 122.171875 397.613281 121.566406 398.53125 121.078125 C 399.449219 120.59375 400.492188 120.347656 401.664063 120.347656 C 402.832031 120.347656 403.933594 120.570313 404.960938 121.015625 C 405.992188 121.460938 406.890625 122.15625 407.652344 123.101563 C 408.417969 124.050781 409.015625 125.265625 409.449219 126.757813 C 409.878906 128.246094 410.097656 130.035156 410.097656 132.121094 Z M 405.796875 132.246094 C 405.796875 129.460938 405.371094 127.445313 404.523438 126.191406 C 403.675781 124.941406 402.457031 124.3125 400.871094 124.3125 C 399.839844 124.3125 398.894531 124.601563 398.03125 125.167969 C 397.167969 125.738281 396.457031 126.390625 395.898438 127.113281 L 395.898438 136.339844 C 396.152344 136.671875 396.457031 137.003906 396.820313 137.339844 C 397.183594 137.675781 397.585938 137.980469 398.03125 138.257813 C 398.476563 138.535156 398.949219 138.765625 399.449219 138.949219 C 399.953125 139.128906 400.480469 139.21875 401.035156 139.21875 C 402.59375 139.21875 403.777344 138.640625 404.585938 137.488281 C 405.394531 136.332031 405.796875 134.585938 405.796875 132.246094 Z M 415.691406 142.726563 L 415.691406 114.542969 L 419.992188 112.289063 L 419.992188 142.726563 Z M 444.328125 131.328125 C 444.328125 131.71875 444.316406 132.085938 444.289063 132.433594 C 444.261719 132.78125 444.234375 133.066406 444.203125 133.289063 L 429.71875 133.289063 C 429.828125 134.347656 430.054688 135.25 430.386719 136.003906 C 430.71875 136.757813 431.136719 137.375 431.640625 137.863281 C 432.140625 138.347656 432.695313 138.710938 433.308594 138.949219 C 433.921875 139.183594 434.558594 139.304688 435.230469 139.304688 C 436.148438 139.304688 436.992188 139.148438 437.753906 138.839844 C 438.523438 138.535156 439.265625 138.105469 439.988281 137.546875 L 442.535156 140.304688 C 441.5625 141.222656 440.476563 141.933594 439.28125 142.433594 C 438.082031 142.933594 436.648438 143.183594 434.980469 143.183594 C 433.699219 143.183594 432.480469 142.933594 431.328125 142.433594 C 430.171875 141.933594 429.160156 141.195313 428.296875 140.222656 C 427.4375 139.246094 426.753906 138.050781 426.253906 136.628906 C 425.75 135.210938 425.503906 133.597656 425.503906 131.789063 C 425.503906 129.921875 425.738281 128.28125 426.210938 126.859375 C 426.683594 125.441406 427.339844 124.253906 428.175781 123.289063 C 429.007813 122.328125 430.019531 121.601563 431.199219 121.101563 C 432.382813 120.601563 433.683594 120.347656 435.105469 120.347656 C 436.664063 120.347656 438.019531 120.640625 439.175781 121.226563 C 440.328125 121.808594 441.289063 122.601563 442.058594 123.605469 C 442.820313 124.605469 443.390625 125.773438 443.765625 127.113281 C 444.144531 128.449219 444.328125 129.851563 444.328125 131.328125 Z M 439.988281 129.738281 C 439.933594 128.988281 439.800781 128.28125 439.59375 127.613281 C 439.382813 126.945313 439.070313 126.359375 438.652344 125.859375 C 438.234375 125.359375 437.714844 124.960938 437.089844 124.667969 C 436.460938 124.378906 435.703125 124.230469 434.8125 124.230469 C 433.363281 124.230469 432.214844 124.710938 431.367188 125.671875 C 430.519531 126.632813 429.996094 127.988281 429.804688 129.738281 Z M 475.144531 142.726563 L 475.144531 130.324219 C 475.144531 128.097656 474.796875 126.539063 474.097656 125.648438 C 473.402344 124.757813 472.34375 124.3125 470.925781 124.3125 C 469.476563 124.3125 468.414063 124.800781 467.730469 125.773438 C 467.050781 126.75 466.707031 128.128906 466.707031 129.910156 L 466.707031 142.726563 L 462.410156 142.726563 L 462.410156 130.324219 C 462.410156 128.097656 462.0625 126.539063 461.363281 125.648438 C 460.667969 124.757813 459.609375 124.3125 458.191406 124.3125 C 456.742188 124.3125 455.679688 124.800781 454.996094 125.773438 C 454.316406 126.75 453.976563 128.128906 453.976563 129.910156 L 453.976563 142.726563 L 449.675781 142.726563 L 449.675781 120.808594 L 453.976563 120.808594 L 453.976563 122.894531 C 454.53125 122.085938 455.253906 121.460938 456.144531 121.015625 C 457.039063 120.570313 458.050781 120.347656 459.195313 120.347656 C 460.699219 120.347656 461.929688 120.621094 462.890625 121.160156 C 463.847656 121.703125 464.621094 122.503906 465.203125 123.5625 C 465.59375 123.0625 466.007813 122.617188 466.4375 122.226563 C 466.867188 121.835938 467.351563 121.503906 467.878906 121.226563 C 468.40625 120.945313 468.996094 120.730469 469.648438 120.578125 C 470.304688 120.421875 471.0625 120.347656 471.925781 120.347656 C 474.488281 120.347656 476.378906 121.167969 477.605469 122.808594 C 478.828125 124.453125 479.441406 126.902344 479.441406 130.160156 L 479.441406 142.726563 Z M 503.40625 131.328125 C 503.40625 131.71875 503.390625 132.085938 503.367188 132.433594 C 503.335938 132.78125 503.308594 133.066406 503.28125 133.289063 L 488.792969 133.289063 C 488.90625 134.347656 489.128906 135.25 489.460938 136.003906 C 489.796875 136.757813 490.214844 137.375 490.714844 137.863281 C 491.214844 138.347656 491.769531 138.710938 492.382813 138.949219 C 492.996094 139.183594 493.636719 139.304688 494.304688 139.304688 C 495.222656 139.304688 496.066406 139.148438 496.832031 138.839844 C 497.597656 138.535156 498.339844 138.105469 499.0625 137.546875 L 501.609375 140.304688 C 500.636719 141.222656 499.550781 141.933594 498.355469 142.433594 C 497.15625 142.933594 495.726563 143.183594 494.054688 143.183594 C 492.773438 143.183594 491.554688 142.933594 490.402344 142.433594 C 489.246094 141.933594 488.234375 141.195313 487.375 140.222656 C 486.511719 139.246094 485.828125 138.050781 485.328125 136.628906 C 484.828125 135.210938 484.574219 133.597656 484.574219 131.789063 C 484.574219 129.921875 484.8125 128.28125 485.289063 126.859375 C 485.757813 125.441406 486.414063 124.253906 487.25 123.289063 C 488.085938 122.328125 489.09375 121.601563 490.277344 121.101563 C 491.460938 120.601563 492.761719 120.347656 494.179688 120.347656 C 495.738281 120.347656 497.09375 120.640625 498.25 121.226563 C 499.402344 121.808594 500.363281 122.601563 501.132813 123.605469 C 501.894531 124.605469 502.464844 125.773438 502.839844 127.113281 C 503.21875 128.449219 503.40625 129.851563 503.40625 131.328125 Z M 499.0625 129.738281 C 499.011719 128.988281 498.875 128.28125 498.667969 127.613281 C 498.457031 126.945313 498.144531 126.359375 497.730469 125.859375 C 497.3125 125.359375 496.789063 124.960938 496.164063 124.667969 C 495.535156 124.378906 494.777344 124.230469 493.886719 124.230469 C 492.441406 124.230469 491.289063 124.710938 490.441406 125.671875 C 489.59375 126.632813 489.070313 127.988281 488.878906 129.738281 Z M 522.070313 142.726563 L 522.070313 130.324219 C 522.070313 128.097656 521.671875 126.539063 520.878906 125.648438 C 520.085938 124.757813 518.980469 124.3125 517.558594 124.3125 C 516.113281 124.3125 515 124.800781 514.21875 125.773438 C 513.441406 126.75 513.050781 128.128906 513.050781 129.910156 L 513.050781 142.726563 L 508.75 142.726563 L 508.75 120.808594 L 513.050781 120.808594 L 513.050781 122.894531 C 513.605469 122.085938 514.378906 121.460938 515.367188 121.015625 C 516.355469 120.570313 517.421875 120.347656 518.5625 120.347656 C 521.121094 120.347656 523.0625 121.167969 524.386719 122.808594 C 525.707031 124.453125 526.367188 126.902344 526.367188 130.160156 L 526.367188 142.726563 Z M 542.816406 142.183594 C 542.289063 142.488281 541.671875 142.730469 540.960938 142.914063 C 540.25 143.09375 539.464844 143.183594 538.601563 143.183594 C 537.070313 143.183594 535.867188 142.714844 534.988281 141.765625 C 534.113281 140.820313 533.671875 139.355469 533.671875 137.382813 L 533.671875 124.730469 L 530.542969 124.730469 L 530.542969 120.808594 L 533.671875 120.808594 L 533.671875 114.542969 L 537.890625 112.289063 L 537.890625 120.808594 L 543.316406 120.808594 L 543.316406 124.730469 L 537.890625 124.730469 L 537.890625 136.628906 C 537.890625 137.660156 538.0625 138.355469 538.414063 138.71875 C 538.761719 139.078125 539.339844 139.261719 540.144531 139.261719 C 540.703125 139.261719 541.273438 139.167969 541.855469 138.988281 C 542.441406 138.808594 542.929688 138.605469 543.316406 138.382813 L 542.816406 142.183594 "/>
<path style=" stroke:none;fill-rule:nonzero;fill:rgb(13.699341%,12.199402%,12.5%);fill-opacity:1;" d="M 566.824219 131.660156 C 566.824219 133.46875 566.574219 135.09375 566.074219 136.523438 C 565.570313 137.960938 564.875 139.167969 563.984375 140.15625 C 563.09375 141.144531 562.050781 141.898438 560.855469 142.410156 C 559.65625 142.929688 558.347656 143.183594 556.929688 143.183594 C 555.535156 143.183594 554.257813 142.914063 553.089844 142.371094 C 551.917969 141.828125 550.902344 141.054688 550.039063 140.054688 C 549.179688 139.050781 548.503906 137.855469 548.015625 136.460938 C 547.527344 135.070313 547.28125 133.511719 547.28125 131.789063 C 547.28125 130.007813 547.53125 128.40625 548.035156 126.984375 C 548.535156 125.566406 549.222656 124.363281 550.101563 123.375 C 550.980469 122.386719 552.007813 121.636719 553.191406 121.121094 C 554.375 120.605469 555.664063 120.347656 557.054688 120.347656 C 558.445313 120.347656 559.738281 120.621094 560.9375 121.160156 C 562.132813 121.703125 563.171875 122.460938 564.046875 123.4375 C 564.921875 124.410156 565.605469 125.601563 566.09375 127.007813 C 566.578125 128.414063 566.824219 129.964844 566.824219 131.660156 Z M 562.480469 131.789063 C 562.480469 129.53125 561.988281 127.742188 561 126.421875 C 560.011719 125.101563 558.640625 124.441406 556.886719 124.441406 C 555.246094 124.441406 553.957031 125.101563 553.027344 126.421875 C 552.09375 127.742188 551.625 129.492188 551.625 131.660156 C 551.625 134.085938 552.125 135.925781 553.128906 137.195313 C 554.132813 138.460938 555.453125 139.09375 557.097656 139.09375 C 557.902344 139.09375 558.640625 138.898438 559.308594 138.507813 C 559.976563 138.121094 560.546875 137.597656 561.019531 136.941406 C 561.492188 136.289063 561.855469 135.519531 562.105469 134.625 C 562.355469 133.734375 562.480469 132.789063 562.480469 131.789063 Z M 587.027344 136.710938 C 587.027344 137.9375 586.800781 138.960938 586.339844 139.78125 C 585.882813 140.601563 585.277344 141.265625 584.523438 141.765625 C 583.773438 142.265625 582.902344 142.625 581.914063 142.851563 C 580.925781 143.074219 579.890625 143.183594 578.804688 143.183594 C 577.300781 143.183594 575.804688 142.921875 574.316406 142.390625 C 572.828125 141.863281 571.527344 141.195313 570.414063 140.386719 L 572.375 137.128906 C 573.40625 137.855469 574.46875 138.398438 575.570313 138.757813 C 576.667969 139.121094 577.734375 139.304688 578.765625 139.304688 C 581.433594 139.304688 582.769531 138.496094 582.769531 136.878906 C 582.769531 136.046875 582.316406 135.375 581.414063 134.878906 C 580.511719 134.375 579.261719 133.820313 577.679688 133.207031 C 576.507813 132.761719 575.515625 132.308594 574.691406 131.851563 C 573.871094 131.390625 573.203125 130.894531 572.6875 130.367188 C 572.175781 129.839844 571.804688 129.246094 571.582031 128.59375 C 571.359375 127.941406 571.246094 127.179688 571.246094 126.320313 C 571.246094 125.34375 571.425781 124.480469 571.792969 123.726563 C 572.152344 122.980469 572.667969 122.351563 573.335938 121.851563 C 574.003906 121.351563 574.796875 120.972656 575.714844 120.722656 C 576.632813 120.472656 577.636719 120.347656 578.722656 120.347656 C 580.113281 120.347656 581.457031 120.570313 582.75 121.015625 C 584.042969 121.460938 585.179688 122.042969 586.152344 122.769531 L 584.273438 126.066406 C 583.382813 125.425781 582.476563 124.953125 581.5625 124.648438 C 580.640625 124.339844 579.652344 124.1875 578.59375 124.1875 C 577.539063 124.1875 576.773438 124.378906 576.300781 124.753906 C 575.824219 125.128906 575.589844 125.605469 575.589844 126.191406 C 575.589844 126.472656 575.644531 126.726563 575.757813 126.964844 C 575.867188 127.203125 576.078125 127.445313 576.382813 127.695313 C 576.6875 127.949219 577.101563 128.203125 577.613281 128.46875 C 578.128906 128.734375 578.804688 129.03125 579.640625 129.363281 C 580.863281 129.839844 581.9375 130.289063 582.855469 130.722656 C 583.773438 131.152344 584.546875 131.640625 585.171875 132.183594 C 585.796875 132.726563 586.265625 133.359375 586.570313 134.085938 C 586.875 134.808594 587.027344 135.683594 587.027344 136.710938 "/>
<path style=" stroke:none;fill-rule:evenodd;fill:rgb(13.699341%,12.199402%,12.5%);fill-opacity:1;" d="M 368.359375 25.003906 L 384.664063 25.003906 C 398.539063 25.003906 405.132813 31.246094 405.132813 43.390625 C 405.132813 53.449219 395.765625 57.960938 395.765625 57.960938 L 407.5625 74.265625 L 390.90625 74.265625 L 381.542969 58.65625 L 381.542969 74.265625 L 368.359375 74.265625 Z M 381.542969 49.285156 L 385.355469 49.285156 C 388.480469 49.285156 390.90625 46.511719 390.90625 43.734375 C 390.90625 40.265625 388.480469 37.839844 385.355469 37.839844 L 381.542969 37.839844 L 381.542969 49.285156 "/>
<path style=" stroke:none;fill-rule:evenodd;fill:rgb(13.699341%,12.199402%,12.5%);fill-opacity:1;" d="M 302.441406 25.003906 L 320.480469 25.003906 C 330.890625 25.003906 336.441406 31.246094 336.441406 38.878906 C 336.441406 47.207031 329.152344 49.285156 329.152344 49.285156 C 329.152344 49.285156 336.789063 49.980469 336.789063 61.082031 C 336.789063 69.0625 329.847656 74.265625 322.5625 74.265625 L 302.441406 74.265625 Z M 316.664063 43.734375 L 318.746094 43.734375 C 320.828125 43.734375 322.21875 42.347656 322.21875 40.265625 C 322.21875 38.1875 320.828125 36.800781 318.746094 36.800781 L 316.664063 36.800781 Z M 316.664063 63.164063 L 318.398438 63.164063 C 320.828125 63.164063 322.5625 61.429688 322.5625 59.003906 C 322.5625 56.574219 320.828125 54.839844 318.398438 54.839844 L 316.664063 54.839844 L 316.664063 63.164063 "/>
<path style=" stroke:none;fill-rule:evenodd;fill:rgb(13.699341%,12.199402%,12.5%);fill-opacity:1;" d="M 267.402344 25.003906 L 285.441406 25.003906 C 295.851563 25.003906 301.054688 31.246094 301.054688 38.878906 C 301.054688 47.207031 294.113281 49.285156 294.113281 49.285156 C 294.113281 49.285156 301.746094 49.980469 301.746094 61.082031 C 301.746094 69.0625 294.808594 74.265625 287.523438 74.265625 L 267.402344 74.265625 Z M 281.277344 43.734375 L 283.707031 43.734375 C 285.789063 43.734375 287.175781 42.347656 287.175781 40.265625 C 287.175781 38.1875 285.789063 36.800781 283.707031 36.800781 L 281.277344 36.800781 Z M 281.277344 63.164063 L 283.359375 63.164063 C 285.789063 63.164063 287.523438 61.429688 287.523438 59.003906 C 287.523438 56.574219 285.789063 54.839844 283.359375 54.839844 L 281.277344 54.839844 L 281.277344 63.164063 "/>
<path style=" stroke:none;fill-rule:evenodd;fill:rgb(13.699341%,12.199402%,12.5%);fill-opacity:1;" d="M 8.246094 74.265625 L 41.203125 25.003906 L 54.734375 25.003906 L 54.734375 46.511719 L 69.304688 25.003906 L 82.488281 25.003906 L 82.488281 53.449219 L 101.570313 25.003906 L 114.402344 25.003906 L 114.402344 74.265625 L 101.570313 74.265625 L 101.570313 68.023438 L 88.386719 68.023438 L 84.222656 74.265625 L 68.957031 74.265625 L 68.957031 50.328125 L 54.734375 74.265625 L 41.203125 74.265625 L 41.203125 50.328125 L 23.855469 74.265625 Z M 96.363281 55.878906 L 101.570313 55.878906 L 101.570313 48.59375 Z M 96.363281 55.878906 "/>
<path style=" stroke:none;fill-rule:evenodd;fill:rgb(13.699341%,12.199402%,12.5%);fill-opacity:1;" d="M 191.769531 25.003906 L 208.421875 25.003906 C 222.300781 25.003906 228.546875 31.246094 228.546875 43.734375 C 228.546875 53.449219 219.179688 58.308594 219.179688 58.308594 L 230.972656 74.265625 L 214.320313 74.265625 L 204.953125 59.003906 L 204.953125 74.265625 L 191.769531 74.265625 Z M 204.953125 49.285156 L 208.769531 49.285156 C 211.894531 49.285156 214.320313 46.859375 214.320313 43.734375 C 214.320313 40.265625 211.894531 37.839844 208.769531 37.839844 L 204.953125 37.839844 L 204.953125 49.285156 "/>
<path style=" stroke:none;fill-rule:evenodd;fill:rgb(13.699341%,12.199402%,12.5%);fill-opacity:1;" d="M 162.976563 25.003906 L 176.503906 25.003906 L 176.503906 74.265625 L 162.976563 74.265625 L 162.976563 25.003906 "/>
<path style=" stroke:none;fill-rule:evenodd;fill:rgb(13.699341%,12.199402%,12.5%);fill-opacity:1;" d="M 117.527344 25.003906 L 133.140625 25.003906 L 139.730469 38.1875 L 146.671875 25.003906 L 162.28125 25.003906 L 150.832031 48.941406 L 162.976563 74.265625 L 146.324219 74.265625 L 139.730469 61.777344 L 132.792969 74.265625 L 116.488281 74.265625 L 131.40625 48.941406 L 117.527344 25.003906 "/>
<path style=" stroke:none;fill-rule:evenodd;fill:rgb(100%,100%,100%);fill-opacity:1;" d="M 10.671875 72.878906 C 10.671875 72.878906 12.058594 72.53125 12.753906 71.492188 C 13.449219 70.796875 41.203125 28.816406 41.898438 28.125 C 42.246094 27.429688 42.246094 27.429688 43.285156 27.429688 C 44.671875 27.429688 52.304688 27.429688 52.304688 27.429688 L 52.652344 26.738281 C 52.652344 26.738281 42.9375 26.738281 42.589844 26.738281 C 41.898438 26.738281 41.546875 26.738281 41.203125 27.085938 C 40.507813 27.777344 10.671875 72.878906 10.671875 72.878906 "/>
<path style=" stroke:none;fill-rule:evenodd;fill:rgb(100%,100%,100%);fill-opacity:1;" d="M 53.34375 47.207031 C 53.34375 47.207031 53.691406 47.898438 54.734375 47.898438 C 55.425781 47.898438 56.46875 47.554688 57.160156 46.511719 C 58.550781 44.429688 69.648438 28.816406 69.996094 28.125 C 70.34375 27.429688 70.691406 27.429688 71.386719 27.429688 C 72.082031 27.429688 80.058594 27.429688 80.058594 27.429688 L 80.753906 26.738281 C 80.753906 26.738281 71.039063 26.738281 70.691406 26.738281 C 70.34375 26.738281 69.996094 26.390625 69.648438 27.085938 C 68.957031 27.777344 57.160156 44.777344 56.8125 45.472656 C 56.46875 46.164063 55.078125 47.554688 54.734375 47.554688 C 53.691406 47.554688 53.34375 47.207031 53.34375 47.207031 "/>
<path style=" stroke:none;fill-rule:evenodd;fill:rgb(100%,100%,100%);fill-opacity:1;" d="M 41.546875 48.59375 C 41.546875 48.59375 43.285156 48.941406 43.285156 50.675781 C 43.285156 52.410156 43.285156 72.183594 43.285156 72.183594 L 42.589844 72.183594 C 42.589844 72.183594 42.589844 51.714844 42.589844 50.675781 C 42.589844 49.636719 41.546875 48.59375 41.546875 48.59375 "/>
<path style=" stroke:none;fill-rule:evenodd;fill:rgb(100%,100%,100%);fill-opacity:1;" d="M 69.648438 49.285156 C 69.648438 49.285156 71.039063 49.285156 71.039063 50.675781 C 71.039063 52.410156 71.039063 72.183594 71.039063 72.183594 L 70.34375 72.183594 C 70.34375 72.183594 70.34375 51.714844 70.34375 50.675781 C 70.34375 49.636719 69.648438 49.285156 69.648438 49.285156 "/>
<path style=" stroke:none;fill-rule:evenodd;fill:rgb(100%,100%,100%);fill-opacity:1;" d="M 80.753906 53.796875 C 80.753906 53.796875 81.097656 55.183594 82.488281 55.183594 C 83.875 55.183594 83.875 54.839844 84.566406 54.144531 C 85.609375 53.101563 101.914063 28.125 102.261719 27.777344 C 102.609375 27.429688 102.609375 27.429688 103.304688 27.429688 C 103.996094 27.429688 111.976563 27.429688 111.976563 27.429688 L 112.324219 26.390625 C 112.324219 26.390625 103.648438 26.390625 103.304688 26.390625 C 102.957031 26.390625 102.261719 26.390625 101.570313 27.085938 C 101.222656 27.777344 84.222656 53.101563 83.527344 53.796875 C 83.179688 54.492188 82.832031 54.492188 82.488281 54.492188 C 81.445313 54.492188 80.753906 53.796875 80.753906 53.796875 "/>
<path style=" stroke:none;fill-rule:evenodd;fill:rgb(100%,100%,100%);fill-opacity:1;" d="M 94.976563 56.917969 C 94.976563 56.917969 95.324219 57.960938 96.363281 57.960938 C 97.753906 57.960938 100.527344 57.960938 101.222656 57.960938 C 102.261719 57.960938 103.304688 57.265625 103.304688 55.878906 C 103.304688 55.183594 103.304688 49.285156 103.304688 48.246094 C 103.304688 47.207031 102.609375 46.859375 102.609375 46.859375 C 102.609375 46.859375 102.957031 47.554688 102.957031 48.59375 C 102.957031 49.636719 102.957031 55.183594 102.957031 55.878906 C 102.957031 56.574219 101.914063 57.265625 100.875 57.265625 C 99.832031 57.265625 97.058594 57.265625 96.363281 57.265625 C 95.324219 57.265625 94.976563 56.917969 94.976563 56.917969 "/>
<path style=" stroke:none;fill-rule:evenodd;fill:rgb(100%,100%,100%);fill-opacity:1;" d="M 102.609375 66.980469 C 102.609375 66.980469 103.648438 67.675781 103.648438 68.023438 C 103.648438 68.714844 103.648438 72.183594 103.648438 72.183594 L 102.957031 72.183594 C 102.957031 72.183594 102.957031 68.714844 102.957031 68.023438 C 102.957031 67.675781 102.609375 66.980469 102.609375 66.980469 "/>
<path style=" stroke:none;fill-rule:evenodd;fill:rgb(100%,100%,100%);fill-opacity:1;" d="M 132.792969 28.472656 C 132.792969 28.472656 132.445313 27.429688 132.097656 27.085938 C 132.097656 26.738281 131.753906 26.738281 130.710938 26.738281 C 130.015625 26.738281 120.996094 26.738281 120.648438 26.738281 C 120.300781 26.738281 120.300781 27.085938 120.300781 27.429688 C 120.648438 27.777344 131.753906 46.511719 132.097656 46.859375 C 132.445313 47.554688 132.792969 48.246094 132.097656 49.285156 C 131.40625 50.328125 119.261719 72.183594 119.261719 72.183594 L 119.957031 72.183594 C 119.957031 72.183594 132.445313 51.023438 132.792969 49.980469 C 133.140625 48.941406 133.140625 47.898438 132.445313 46.859375 C 131.753906 45.472656 121.691406 27.777344 121.34375 27.777344 C 120.996094 27.429688 120.996094 27.085938 121.691406 27.085938 C 121.691406 27.085938 131.058594 27.085938 131.40625 27.085938 C 132.097656 27.085938 132.792969 28.472656 132.792969 28.472656 "/>
<path style=" stroke:none;fill-rule:evenodd;fill:rgb(100%,100%,100%);fill-opacity:1;" d="M 137.300781 38.1875 C 137.300781 38.1875 137.996094 40.265625 139.730469 40.265625 C 140.769531 40.265625 141.117188 39.226563 141.8125 38.53125 C 142.160156 37.839844 147.015625 28.472656 147.363281 27.777344 C 147.710938 27.429688 148.058594 27.429688 148.402344 27.429688 C 149.097656 27.429688 158.464844 27.429688 158.464844 27.429688 L 158.8125 26.738281 C 158.8125 26.738281 148.402344 26.738281 148.058594 26.738281 C 147.710938 26.738281 147.363281 26.738281 147.015625 27.085938 C 146.671875 27.777344 141.464844 37.492188 141.117188 38.1875 C 140.769531 38.878906 140.425781 39.226563 139.730469 39.226563 C 138.34375 39.226563 137.300781 38.1875 137.300781 38.1875 "/>
<path style=" stroke:none;fill-rule:evenodd;fill:rgb(100%,100%,100%);fill-opacity:1;" d="M 140.078125 60.042969 C 140.078125 60.042969 140.769531 60.042969 141.464844 61.082031 C 142.160156 62.46875 147.710938 72.183594 147.710938 72.183594 L 147.015625 72.183594 C 147.015625 72.183594 141.464844 62.121094 141.117188 61.082031 C 140.769531 60.390625 140.078125 60.042969 140.078125 60.042969 "/>
<path style=" stroke:none;fill-rule:evenodd;fill:rgb(100%,100%,100%);fill-opacity:1;" d="M 164.015625 72.183594 L 164.710938 71.835938 C 164.710938 71.835938 164.710938 28.125 164.710938 27.777344 C 164.710938 27.085938 165.054688 27.085938 165.402344 27.085938 C 165.753906 27.085938 174.074219 27.085938 174.074219 27.085938 L 174.425781 26.390625 C 174.425781 26.390625 165.402344 26.390625 164.710938 26.390625 C 164.363281 26.390625 164.015625 26.390625 164.015625 27.085938 C 164.015625 28.125 164.015625 72.183594 164.015625 72.183594 "/>
<path style=" stroke:none;fill-rule:evenodd;fill:rgb(13.699341%,12.199402%,12.5%);fill-opacity:1;" d="M 229.238281 25.003906 L 242.074219 25.003906 L 242.074219 57.960938 C 242.074219 61.082031 244.503906 62.816406 247.277344 62.816406 C 250.054688 62.816406 252.480469 61.082031 252.480469 57.960938 L 252.480469 25.003906 L 266.011719 25.003906 L 266.011719 58.308594 C 266.011719 68.714844 259.769531 76.347656 247.972656 76.347656 C 234.097656 76.347656 229.238281 68.714844 229.238281 61.429688 L 229.238281 25.003906 "/>
<path style=" stroke:none;fill-rule:evenodd;fill:rgb(13.699341%,12.199402%,12.5%);fill-opacity:1;" d="M 337.828125 25.003906 L 337.828125 74.265625 L 366.277344 74.265625 L 366.277344 62.816406 L 351.359375 62.816406 L 351.359375 55.53125 L 365.582031 55.53125 L 365.582031 43.734375 L 351.359375 43.734375 L 351.359375 36.800781 L 366.277344 36.800781 L 366.277344 25.003906 L 337.828125 25.003906 "/>
<path style=" stroke:none;fill-rule:evenodd;fill:rgb(100%,100%,100%);fill-opacity:1;" d="M 339.214844 72.183594 L 339.910156 71.835938 C 339.910156 71.835938 339.910156 28.125 339.910156 27.777344 C 339.910156 27.085938 339.910156 27.085938 340.605469 27.085938 C 340.949219 27.085938 364.195313 27.085938 364.195313 27.085938 L 364.539063 26.390625 C 364.539063 26.390625 340.605469 26.390625 339.910156 26.390625 C 339.214844 26.390625 339.214844 26.390625 339.214844 27.085938 C 339.214844 28.125 339.214844 72.183594 339.214844 72.183594 "/>
<path style=" stroke:none;fill-rule:evenodd;fill:rgb(100%,100%,100%);fill-opacity:1;" d="M 193.851563 72.183594 L 193.160156 72.183594 C 193.160156 72.183594 193.160156 28.125 193.160156 27.429688 C 193.160156 26.738281 193.160156 26.738281 194.199219 26.738281 C 194.890625 26.738281 209.117188 26.738281 210.851563 26.738281 C 211.546875 26.738281 217.09375 27.085938 220.566406 29.515625 C 224.035156 31.941406 225.421875 35.757813 225.421875 35.757813 C 225.421875 35.757813 222.648438 30.902344 219.871094 29.515625 C 216.75 28.125 213.628906 27.429688 210.851563 27.429688 C 208.421875 27.429688 194.890625 27.429688 194.546875 27.429688 C 193.851563 27.429688 193.851563 27.777344 193.851563 28.125 C 193.851563 28.472656 193.851563 72.183594 193.851563 72.183594 "/>
<path style=" stroke:none;fill-rule:evenodd;fill:rgb(100%,100%,100%);fill-opacity:1;" d="M 203.21875 50.328125 C 203.21875 50.328125 203.910156 51.367188 204.953125 51.367188 C 205.648438 51.367188 209.464844 51.367188 210.15625 51.367188 C 211.546875 51.367188 216.75 49.636719 216.75 44.085938 C 216.75 38.1875 212.933594 36.800781 212.933594 36.800781 C 212.933594 36.800781 216.054688 38.878906 216.054688 43.734375 C 216.054688 48.246094 211.894531 50.675781 209.808594 50.675781 C 208.074219 50.675781 205.996094 50.675781 204.953125 50.675781 C 203.910156 50.675781 203.21875 50.328125 203.21875 50.328125 "/>
<path style=" stroke:none;fill-rule:evenodd;fill:rgb(100%,100%,100%);fill-opacity:1;" d="M 205.648438 57.960938 C 205.648438 57.960938 207.035156 57.960938 207.730469 59.003906 C 208.421875 60.390625 214.667969 70.796875 215.015625 71.492188 C 215.359375 71.835938 216.054688 72.183594 216.054688 72.183594 C 216.054688 72.183594 215.015625 72.183594 214.667969 71.492188 C 214.320313 70.796875 207.730469 60.042969 207.035156 59.347656 C 206.6875 58.65625 205.648438 57.960938 205.648438 57.960938 "/>
<path style=" stroke:none;fill-rule:evenodd;fill:rgb(100%,100%,100%);fill-opacity:1;" d="M 239.648438 27.085938 L 240.339844 26.738281 C 240.339844 26.738281 232.710938 26.738281 231.667969 26.738281 C 230.972656 26.738281 230.625 26.738281 230.625 27.429688 C 230.625 27.777344 230.625 60.042969 230.625 61.429688 C 230.625 63.164063 231.667969 67.328125 234.097656 70.101563 C 236.871094 72.53125 241.730469 73.570313 241.730469 73.570313 C 241.730469 73.570313 233.75 71.144531 232.015625 64.898438 C 231.667969 63.511719 231.320313 61.429688 231.320313 61.429688 C 231.320313 61.429688 231.320313 29.164063 231.320313 28.472656 C 231.320313 27.429688 231.667969 27.085938 232.359375 27.085938 C 233.054688 27.085938 239.648438 27.085938 239.648438 27.085938 "/>
<path style=" stroke:none;fill-rule:evenodd;fill:rgb(100%,100%,100%);fill-opacity:1;" d="M 240.339844 60.390625 C 240.339844 60.390625 241.730469 64.898438 247.628906 64.898438 C 253.523438 64.898438 254.5625 59.695313 254.5625 57.960938 C 254.5625 56.226563 254.5625 29.164063 254.5625 28.472656 C 254.5625 27.777344 254.910156 27.429688 255.953125 27.429688 C 256.648438 27.429688 263.933594 27.429688 263.933594 27.429688 L 264.277344 26.390625 C 264.277344 26.390625 255.605469 26.390625 254.910156 26.390625 C 254.21875 26.390625 253.871094 27.429688 253.871094 28.125 C 253.871094 28.472656 253.871094 57.265625 253.871094 57.960938 C 253.871094 59.003906 252.828125 64.203125 247.277344 64.203125 C 242.074219 64.203125 240.339844 60.390625 240.339844 60.390625 "/>
<path style=" stroke:none;fill-rule:evenodd;fill:rgb(100%,100%,100%);fill-opacity:1;" d="M 269.484375 72.183594 L 268.789063 72.53125 C 268.789063 72.53125 268.789063 28.472656 268.789063 27.777344 C 268.789063 27.085938 269.136719 26.390625 270.523438 26.390625 C 271.566406 26.390625 285.441406 26.390625 286.828125 26.390625 C 288.214844 26.390625 292.035156 27.085938 295.15625 29.859375 C 298.277344 32.289063 298.277344 35.0625 298.277344 35.0625 C 298.277344 35.0625 296.890625 31.246094 293.421875 29.164063 C 291.339844 28.125 288.5625 27.429688 286.828125 27.429688 C 284.746094 27.429688 270.871094 27.429688 270.175781 27.429688 C 269.484375 27.429688 269.484375 27.777344 269.484375 28.125 C 269.484375 28.472656 269.484375 72.183594 269.484375 72.183594 "/>
<path style=" stroke:none;fill-rule:evenodd;fill:rgb(100%,100%,100%);fill-opacity:1;" d="M 289.605469 40.960938 C 289.605469 43.390625 287.523438 46.164063 284.402344 46.164063 C 282.664063 46.164063 281.625 46.164063 281.277344 46.164063 C 279.890625 46.164063 279.195313 44.429688 279.195313 44.429688 C 279.195313 44.429688 280.238281 45.472656 281.277344 45.472656 C 282.320313 45.472656 283.707031 45.472656 284.402344 45.472656 C 286.136719 45.472656 288.5625 43.734375 288.5625 40.613281 C 288.5625 37.492188 286.480469 35.410156 286.480469 35.410156 C 286.480469 35.410156 289.605469 36.800781 289.605469 40.960938 "/>
<path style=" stroke:none;fill-rule:evenodd;fill:rgb(100%,100%,100%);fill-opacity:1;" d="M 285.09375 52.757813 C 285.09375 52.757813 288.910156 53.449219 288.910156 59.003906 C 288.910156 63.164063 285.441406 64.898438 282.664063 64.898438 C 280.585938 64.898438 279.890625 64.203125 279.890625 64.203125 C 279.890625 64.203125 279.890625 65.59375 282.664063 65.59375 C 286.828125 65.59375 289.605469 63.511719 289.605469 59.347656 C 289.605469 53.449219 285.09375 52.757813 285.09375 52.757813 "/>
<path style=" stroke:none;fill-rule:evenodd;fill:rgb(100%,100%,100%);fill-opacity:1;" d="M 292.726563 51.023438 C 292.726563 51.023438 295.503906 51.367188 296.542969 52.757813 C 299.320313 55.878906 299.667969 58.65625 299.667969 58.65625 C 299.667969 58.65625 299.320313 54.492188 296.542969 52.410156 C 294.460938 50.328125 292.726563 51.023438 292.726563 51.023438 "/>
<path style=" stroke:none;fill-rule:evenodd;fill:rgb(100%,100%,100%);fill-opacity:1;" d="M 304.523438 72.183594 L 303.828125 72.53125 C 303.828125 72.53125 303.828125 28.472656 303.828125 27.777344 C 303.828125 27.085938 304.175781 26.390625 305.5625 26.390625 C 306.601563 26.390625 320.480469 26.738281 321.871094 26.738281 C 323.257813 26.738281 327.074219 27.085938 330.195313 29.859375 C 333.316406 32.289063 333.316406 35.0625 333.316406 35.0625 C 333.316406 35.0625 331.929688 31.246094 328.460938 29.164063 C 326.378906 28.125 323.605469 27.429688 321.871094 27.429688 C 319.785156 27.429688 305.910156 27.429688 305.21875 27.429688 C 304.523438 27.429688 304.523438 27.777344 304.523438 28.125 C 304.523438 28.472656 304.523438 72.183594 304.523438 72.183594 "/>
<path style=" stroke:none;fill-rule:evenodd;fill:rgb(100%,100%,100%);fill-opacity:1;" d="M 324.644531 40.960938 C 324.644531 43.734375 322.21875 46.164063 319.441406 46.164063 C 317.707031 46.164063 316.664063 46.164063 316.320313 46.164063 C 314.929688 46.164063 314.238281 44.429688 314.238281 44.429688 C 314.238281 44.429688 315.277344 45.472656 316.320313 45.472656 C 317.359375 45.472656 318.746094 45.472656 319.441406 45.472656 C 320.828125 45.472656 323.949219 43.734375 323.949219 40.613281 C 323.949219 37.492188 321.523438 35.410156 321.523438 35.410156 C 321.523438 35.410156 324.644531 36.800781 324.644531 40.960938 "/>
<path style=" stroke:none;fill-rule:evenodd;fill:rgb(100%,100%,100%);fill-opacity:1;" d="M 320.132813 52.757813 C 320.132813 52.757813 324.296875 53.449219 324.296875 59.003906 C 324.296875 63.164063 320.132813 64.898438 317.707031 64.898438 C 315.277344 64.898438 314.929688 64.203125 314.929688 64.203125 C 314.929688 64.203125 314.929688 65.59375 317.707031 65.59375 C 321.523438 65.59375 324.644531 63.511719 324.644531 59.347656 C 324.644531 53.449219 320.132813 52.757813 320.132813 52.757813 "/>
<path style=" stroke:none;fill-rule:evenodd;fill:rgb(100%,100%,100%);fill-opacity:1;" d="M 328.113281 51.023438 C 328.113281 51.023438 330.542969 51.367188 331.582031 52.757813 C 334.359375 55.878906 334.703125 58.65625 334.703125 58.65625 C 334.703125 58.65625 334.359375 54.492188 331.582031 52.410156 C 329.503906 50.328125 328.113281 51.023438 328.113281 51.023438 "/>
<path style=" stroke:none;fill-rule:evenodd;fill:rgb(100%,100%,100%);fill-opacity:1;" d="M 370.441406 72.183594 L 369.746094 72.183594 C 369.746094 72.183594 369.746094 28.125 369.746094 27.429688 C 369.746094 26.738281 369.746094 26.738281 370.785156 26.738281 C 371.480469 26.738281 385.355469 26.738281 387.441406 26.738281 C 388.132813 26.738281 393.683594 27.085938 397.152344 29.515625 C 400.621094 31.941406 401.664063 35.757813 401.664063 35.757813 C 401.664063 35.757813 399.234375 30.902344 396.460938 29.515625 C 393.339844 28.125 390.214844 27.429688 387.441406 27.429688 C 384.664063 27.429688 371.480469 27.429688 371.132813 27.429688 C 370.441406 27.429688 370.441406 27.777344 370.441406 28.125 C 370.441406 28.472656 370.441406 72.183594 370.441406 72.183594 "/>
<path style=" stroke:none;fill-rule:evenodd;fill:rgb(100%,100%,100%);fill-opacity:1;" d="M 379.808594 50.328125 C 379.808594 50.328125 380.5 51.367188 381.195313 51.367188 C 381.890625 51.367188 385.703125 51.367188 386.742188 51.367188 C 389.175781 51.367188 392.988281 48.941406 392.988281 44.085938 C 392.988281 38.1875 389.519531 36.800781 389.519531 36.800781 C 389.519531 36.800781 392.296875 38.878906 392.296875 43.734375 C 392.296875 48.246094 388.480469 50.675781 386.050781 50.675781 C 384.316406 50.675781 382.234375 50.675781 381.195313 50.675781 C 380.5 50.675781 379.808594 50.328125 379.808594 50.328125 "/>
<path style=" stroke:none;fill-rule:evenodd;fill:rgb(100%,100%,100%);fill-opacity:1;" d="M 382.234375 57.960938 C 382.234375 57.960938 383.277344 57.960938 383.96875 59.003906 C 384.664063 60.390625 391.253906 70.796875 391.601563 71.492188 C 391.949219 71.835938 392.644531 72.183594 392.644531 72.183594 C 392.644531 72.183594 391.601563 72.183594 391.253906 71.492188 C 390.90625 70.796875 383.96875 60.042969 383.621094 59.347656 C 383.277344 58.65625 382.234375 57.960938 382.234375 57.960938 "/>
<path style=" stroke:none;fill-rule:evenodd;fill:rgb(100%,100%,100%);fill-opacity:1;" d="M 349.621094 44.085938 C 349.621094 44.085938 349.972656 45.472656 351.359375 45.472656 C 352.398438 45.472656 363.152344 45.472656 363.152344 45.472656 L 363.503906 45.125 C 363.503906 45.125 352.054688 45.125 351.359375 45.125 C 350.320313 45.125 349.621094 44.085938 349.621094 44.085938 "/>
<path style=" stroke:none;fill-rule:evenodd;fill:rgb(100%,100%,100%);fill-opacity:1;" d="M 349.621094 63.511719 C 349.621094 63.511719 349.972656 64.898438 351.359375 64.898438 C 352.398438 64.898438 363.152344 64.898438 363.152344 64.898438 L 363.503906 64.203125 C 363.503906 64.203125 352.054688 64.203125 351.359375 64.203125 C 350.320313 64.203125 349.621094 63.511719 349.621094 63.511719 "/>
<path style=" stroke:none;fill-rule:evenodd;fill:rgb(0%,65.098572%,31.399536%);fill-opacity:1;" d="M 431.5 0.0234375 L 586.578125 0.0234375 L 586.578125 98.203125 L 431.5 98.203125 L 431.5 0.0234375 "/>
<path style=" stroke:none;fill-rule:evenodd;fill:rgb(100%,94.898987%,0%);fill-opacity:1;" d="M 568.191406 47.554688 L 508.171875 11.125 L 448.152344 47.554688 L 508.519531 84.328125 L 568.191406 47.554688 "/>
<path style=" stroke:none;fill-rule:evenodd;fill:rgb(0%,41.999817%,71.398926%);fill-opacity:1;" d="M 481.457031 47.554688 C 481.457031 33.328125 493.253906 21.1875 507.824219 21.1875 C 522.394531 21.1875 534.191406 33.328125 534.191406 47.554688 C 534.191406 62.121094 522.394531 74.265625 507.824219 74.265625 C 493.253906 74.265625 481.457031 62.121094 481.457031 47.554688 "/>
<path style=" stroke:none;fill-rule:evenodd;fill:rgb(100%,100%,100%);fill-opacity:1;" d="M 483.539063 37.839844 C 483.539063 37.839844 519.621094 32.980469 533.152344 55.183594 L 531.761719 58.65625 C 531.761719 58.65625 521.007813 38.1875 482.152344 42.003906 L 483.539063 37.839844 "/>
<path style=" stroke:none;fill-rule:evenodd;fill:rgb(100%,100%,100%);fill-opacity:1;" d="M 485.96875 38.1875 C 485.621094 38.1875 484.925781 38.878906 484.925781 39.574219 C 484.925781 40.265625 485.621094 40.613281 485.96875 40.613281 C 486.660156 40.613281 487.007813 40.265625 487.007813 39.574219 C 487.007813 38.878906 486.660156 38.1875 485.96875 38.1875 "/>
<path style=" stroke:none;fill-rule:evenodd;fill:rgb(100%,100%,100%);fill-opacity:1;" d="M 488.394531 39.226563 L 489.089844 39.226563 C 489.4375 39.226563 489.785156 39.226563 489.785156 38.878906 C 489.785156 38.53125 489.4375 38.53125 489.089844 38.53125 L 488.394531 38.53125 L 488.394531 39.226563 "/>
<path style=" stroke:none;fill-rule:evenodd;fill:rgb(89.01825%,9.411621%,21.568298%);fill-opacity:1;" d="M 0.265625 0.0234375 L 416.582031 0.0234375 L 416.582031 17.71875 L 0.265625 17.71875 L 0.265625 0.0234375 "/>
<path style=" stroke:none;fill-rule:evenodd;fill:rgb(89.01825%,9.411621%,21.568298%);fill-opacity:1;" d="M 0.265625 80.859375 L 416.582031 80.859375 L 416.582031 98.203125 L 0.265625 98.203125 L 0.265625 80.859375 "/>
</g>
</svg>
